<?xml version="1.0" encoding="UTF-8"?>
<svg width="136px" height="140px" viewBox="0 0 136 140" version="1.1" xmlns="http://www.w3.org/2000/svg" xmlns:xlink="http://www.w3.org/1999/xlink">
    <!-- Generator: sketchtool 61 (101010) - https://sketch.com -->
    <title>D2EE94BE-B369-496D-ADAC-A70386D00F0A@1.00x</title>
    <desc>Created with sketchtool.</desc>
    <defs>
        <filter x="-23.8%" y="-23.7%" width="147.6%" height="147.3%" filterUnits="objectBoundingBox" id="filter-1">
            <feGaussianBlur stdDeviation="8" in="SourceGraphic"></feGaussianBlur>
        </filter>
        <linearGradient x1="50%" y1="0%" x2="50%" y2="100%" id="linearGradient-2">
            <stop stop-color="#C1903C" offset="0%"></stop>
            <stop stop-color="#8B5930" offset="100%"></stop>
        </linearGradient>
        <path d="M19.6211605,79.5086436 L82.0962508,79.5086436 L86.9131133,91.3328656 L14.7939571,91.3328656 L19.6211605,79.5086436 Z M10.9480883,15.7899483 L45.373954,2.94433025 C48.0681464,1.93987064 51.0281103,3.24397451 52.1152979,5.91341373 L81.0093075,76.8405071 L20.710465,76.8405071 L44.7766198,17.8913664 C45.0554193,17.2086986 44.7277648,16.4309264 44.0457484,16.1521271 C43.3650349,15.8720249 42.5846571,16.2003307 42.3065091,16.8829985 L40.7661097,20.6560732 L10.9480883,15.7899483 Z M0.57714087,104 C1.27218522,100.900636 3.76314078,94.0010021 12.1577392,94.0010021 L89.897179,94.0010021 C98.2917774,94.0010021 100.782733,100.900636 101.477777,104 L0.57714087,104 Z" id="path-3"></path>
        <filter x="-4.0%" y="-3.9%" width="107.9%" height="107.9%" filterUnits="objectBoundingBox" id="filter-4">
            <feGaussianBlur stdDeviation="4" in="SourceAlpha" result="shadowBlurInner1"></feGaussianBlur>
            <feOffset dx="0" dy="0" in="shadowBlurInner1" result="shadowOffsetInner1"></feOffset>
            <feComposite in="shadowOffsetInner1" in2="SourceAlpha" operator="arithmetic" k2="-1" k3="1" result="shadowInnerInner1"></feComposite>
            <feColorMatrix values="0 0 0 0 0   0 0 0 0 0   0 0 0 0 0  0 0 0 0.2 0" type="matrix" in="shadowInnerInner1"></feColorMatrix>
        </filter>
        <path d="M103.320589,19.6670841 L100.350203,19.6670841 L100.350203,16.7396903 C100.350203,16.0023048 99.7528687,15.405622 99.0161347,15.405622 C98.2794008,15.405622 97.6820665,16.0023048 97.6820665,16.7396903 L97.6820665,19.6670841 L94.7110287,19.6670841 C93.9742948,19.6670841 93.3769605,20.2637669 93.3769605,21.0011524 C93.3769605,21.7385378 93.9742948,22.3352206 94.7110287,22.3352206 L97.6820665,22.3352206 L97.6820665,25.2639173 C97.6820665,26.0013027 98.2794008,26.5979856 99.0161347,26.5979856 C99.7528687,26.5979856 100.350203,26.0013027 100.350203,25.2639173 L100.350203,22.3352206 L103.320589,22.3352206 C104.057323,22.3352206 104.654658,21.7385378 104.654658,21.0011524 C104.654658,20.2637669 104.057323,19.6670841 103.320589,19.6670841 Z" id="path-5"></path>
        <filter x="-35.5%" y="-35.7%" width="170.9%" height="171.5%" filterUnits="objectBoundingBox" id="filter-6">
            <feGaussianBlur stdDeviation="4" in="SourceAlpha" result="shadowBlurInner1"></feGaussianBlur>
            <feOffset dx="0" dy="0" in="shadowBlurInner1" result="shadowOffsetInner1"></feOffset>
            <feComposite in="shadowOffsetInner1" in2="SourceAlpha" operator="arithmetic" k2="-1" k3="1" result="shadowInnerInner1"></feComposite>
            <feColorMatrix values="0 0 0 0 0   0 0 0 0 0   0 0 0 0 0  0 0 0 0.2 0" type="matrix" in="shadowInnerInner1"></feColorMatrix>
        </filter>
        <path d="M96.9511951,62.350754 L93.9801573,62.350754 L93.9801573,59.4220573 C93.9801573,58.6846719 93.3828231,58.0879891 92.6460891,58.0879891 C91.9093551,58.0879891 91.3120208,58.6846719 91.3120208,59.4220573 L91.3120208,62.350754 L88.3416345,62.350754 C87.6049005,62.350754 87.0075662,62.9474369 87.0075662,63.6848223 C87.0075662,64.4222077 87.6049005,65.0188905 88.3416345,65.0188905 L91.3120208,65.0188905 L91.3120208,67.9475872 C91.3120208,68.6849727 91.9093551,69.2816555 92.6460891,69.2816555 C93.3828231,69.2816555 93.9801573,68.6849727 93.9801573,67.9475872 L93.9801573,65.0188905 L96.9511951,65.0188905 C97.6879291,65.0188905 98.2852633,64.4222077 98.2852633,63.6848223 C98.2852633,62.9474369 97.6879291,62.350754 96.9511951,62.350754 Z" id="path-7"></path>
        <filter x="-35.5%" y="-35.7%" width="170.9%" height="171.5%" filterUnits="objectBoundingBox" id="filter-8">
            <feGaussianBlur stdDeviation="4" in="SourceAlpha" result="shadowBlurInner1"></feGaussianBlur>
            <feOffset dx="0" dy="0" in="shadowBlurInner1" result="shadowOffsetInner1"></feOffset>
            <feComposite in="shadowOffsetInner1" in2="SourceAlpha" operator="arithmetic" k2="-1" k3="1" result="shadowInnerInner1"></feComposite>
            <feColorMatrix values="0 0 0 0 0   0 0 0 0 0   0 0 0 0 0  0 0 0 0.2 0" type="matrix" in="shadowInnerInner1"></feColorMatrix>
        </filter>
        <path d="M25.2091998,27.7809289 C24.4724658,27.7809289 23.8751316,28.3776118 23.8751316,29.1149972 L23.8751316,32.042391 L20.9047452,32.042391 C20.1680113,32.042391 19.570677,32.6390739 19.570677,33.3764593 C19.570677,34.1138447 20.1680113,34.7105275 20.9047452,34.7105275 L23.8751316,34.7105275 L23.8751316,37.6392242 C23.8751316,38.3766097 24.4724658,38.9732925 25.2091998,38.9732925 C25.9459338,38.9732925 26.5432681,38.3766097 26.5432681,37.6392242 L26.5432681,34.7105275 L29.5143058,34.7105275 C30.2510398,34.7105275 30.8483741,34.1138447 30.8483741,33.3764593 C30.8483741,32.6390739 30.2510398,32.042391 29.5143058,32.042391 L26.5432681,32.042391 L26.5432681,29.1149972 C26.5432681,28.3776118 25.9459338,27.7809289 25.2091998,27.7809289 Z" id="path-9"></path>
        <filter x="-35.5%" y="-35.7%" width="170.9%" height="171.5%" filterUnits="objectBoundingBox" id="filter-10">
            <feGaussianBlur stdDeviation="4" in="SourceAlpha" result="shadowBlurInner1"></feGaussianBlur>
            <feOffset dx="0" dy="0" in="shadowBlurInner1" result="shadowOffsetInner1"></feOffset>
            <feComposite in="shadowOffsetInner1" in2="SourceAlpha" operator="arithmetic" k2="-1" k3="1" result="shadowInnerInner1"></feComposite>
            <feColorMatrix values="0 0 0 0 0   0 0 0 0 0   0 0 0 0 0  0 0 0 0.2 0" type="matrix" in="shadowInnerInner1"></feColorMatrix>
        </filter>
        <path d="M10.4588865,66.0259557 C11.1956205,66.0259557 11.7929548,65.4292729 11.7929548,64.6918875 L11.7929548,61.7644936 L14.7633411,61.7644936 C15.5000751,61.7644936 16.0974094,61.1678108 16.0974094,60.4304254 C16.0974094,59.69304 15.5000751,59.0963571 14.7633411,59.0963571 L11.7929548,59.0963571 L11.7929548,56.1676604 C11.7929548,55.430275 11.1956205,54.8335922 10.4588865,54.8335922 C9.72215256,54.8335922 9.1248183,55.430275 9.1248183,56.1676604 L9.1248183,59.0963571 L6.15378054,59.0963571 C5.41704655,59.0963571 4.81971229,59.69304 4.81971229,60.4304254 C4.81971229,61.1678108 5.41704655,61.7644936 6.15378054,61.7644936 L9.1248183,61.7644936 L9.1248183,64.6918875 C9.1248183,65.4292729 9.72215256,66.0259557 10.4588865,66.0259557 Z" id="path-11"></path>
        <filter x="-35.5%" y="-35.7%" width="170.9%" height="171.5%" filterUnits="objectBoundingBox" id="filter-12">
            <feGaussianBlur stdDeviation="4" in="SourceAlpha" result="shadowBlurInner1"></feGaussianBlur>
            <feOffset dx="0" dy="0" in="shadowBlurInner1" result="shadowOffsetInner1"></feOffset>
            <feComposite in="shadowOffsetInner1" in2="SourceAlpha" operator="arithmetic" k2="-1" k3="1" result="shadowInnerInner1"></feComposite>
            <feColorMatrix values="0 0 0 0 0   0 0 0 0 0   0 0 0 0 0  0 0 0 0.2 0" type="matrix" in="shadowInnerInner1"></feColorMatrix>
        </filter>
    </defs>
    <g id="screens" stroke="none" stroke-width="1" fill="none" fill-rule="evenodd">
        <g id="start" transform="translate(-119.000000, -56.000000)" fill-rule="nonzero">
            <g id="hat" transform="translate(136.000000, 72.000000)">
                <path d="M19.6211605,79.5086436 L82.0962508,79.5086436 L86.9131133,91.3328656 L14.7939571,91.3328656 L19.6211605,79.5086436 Z M10.9480883,15.7899483 L45.373954,2.94433025 C48.0681464,1.93987064 51.0281103,3.24397451 52.1152979,5.91341373 L81.0093075,76.8405071 L20.710465,76.8405071 L44.7766198,17.8913664 C45.0554193,17.2086986 44.7277648,16.4309264 44.0457484,16.1521271 C43.3650349,15.8720249 42.5846571,16.2003307 42.3065091,16.8829985 L40.7661097,20.6560732 L10.9480883,15.7899483 Z M0.57714087,104 C1.27218522,100.900636 3.76314078,94.0010021 12.1577392,94.0010021 L89.897179,94.0010021 C98.2917774,94.0010021 100.782733,100.900636 101.477777,104 L0.57714087,104 Z" id="Combined-Shape" fill="#FFFFFF" opacity="0.2" style="mix-blend-mode: screen;" filter="url(#filter-1)"></path>
                <g id="Combined-Shape">
                    <use fill="url(#linearGradient-2)" xlink:href="#path-3"></use>
                    <use fill="black" fill-opacity="1" filter="url(#filter-4)" xlink:href="#path-3"></use>
                </g>
                <path d="M83.3076113,6.21724894e-15 C78.8937214,6.21724894e-15 75.3032018,3.58791398 75.3032018,7.9978955 C75.3032018,12.4091797 78.8937214,15.9970938 83.3076113,15.9970938 C87.7215013,15.9970938 91.3120208,12.4091799 91.3120208,7.9978955 C91.3120208,3.58791398 87.7215013,6.21724894e-15 83.3076113,6.21724894e-15 Z M83.3076113,13.3289572 C80.3652352,13.3289572 77.9713383,10.9370145 77.9713383,7.99789536 C77.9713383,5.05877626 80.3652352,2.66813636 83.3076113,2.66813636 C86.2499874,2.66813636 88.6438843,5.05877626 88.6438843,7.99789536 C88.6438843,10.9370145 86.2499876,13.3289572 83.3076113,13.3289572 Z" id="Shape" fill="#FACA55"></path>
                <g id="Path">
                    <use fill="#FACA55" xlink:href="#path-5"></use>
                    <use fill="black" fill-opacity="1" filter="url(#filter-6)" xlink:href="#path-5"></use>
                </g>
                <g id="Path">
                    <use fill="#FACA55" xlink:href="#path-7"></use>
                    <use fill="black" fill-opacity="1" filter="url(#filter-8)" xlink:href="#path-7"></use>
                </g>
                <path d="M8.00440949,32.6065039 C3.59051955,32.6065039 -1.0658141e-14,36.1944179 -1.0658141e-14,40.6043994 C-1.0658141e-14,45.0156837 3.59051955,48.6035978 8.00440949,48.6035978 C12.4182994,48.6035978 16.008819,45.0156838 16.008819,40.6043994 C16.008819,36.1944179 12.4182993,32.6065039 8.00440949,32.6065039 Z M8.00440949,45.9354612 C5.06203338,45.9354612 2.6681365,43.5435184 2.6681365,40.6043993 C2.6681365,37.6652802 5.06203338,35.2746403 8.00440949,35.2746403 C10.9467856,35.2746403 13.3406825,37.6652802 13.3406825,40.6043993 C13.3406825,43.5435184 10.9467856,45.9354612 8.00440949,45.9354612 Z" id="Shape" fill="#FACA55"></path>
                <g id="Path">
                    <use fill="#FACA55" xlink:href="#path-9"></use>
                    <use fill="black" fill-opacity="1" filter="url(#filter-10)" xlink:href="#path-9"></use>
                </g>
                <g id="Path">
                    <use fill="#FACA55" xlink:href="#path-11"></use>
                    <use fill="black" fill-opacity="1" filter="url(#filter-12)" xlink:href="#path-11"></use>
                </g>
                <path d="M96.2750414,31.9433782 L89.3128727,30.9363131 L86.2011325,24.6711429 C85.7503634,23.7617878 84.2625646,23.7617878 83.8117955,24.6711429 L80.7000553,30.9363131 L73.738538,31.9433782 C73.2350055,32.0150322 72.8168063,32.3680914 72.6598187,32.8527333 C72.5034826,33.3360725 72.6357169,33.8676153 73.0011526,34.2206744 L78.0332216,39.0957558 L76.8457185,45.9784536 C76.7590823,46.4787292 76.9642734,46.984216 77.3740044,47.2825575 C77.7837353,47.5822018 78.3270033,47.6212857 78.7777725,47.3880844 L85.0064641,44.1323847 L91.2351558,47.3880844 C91.4292731,47.489703 91.6416297,47.5392093 91.8526835,47.5392093 C92.1301801,47.5392093 92.4057225,47.4532245 92.6389239,47.2825575 C93.0486548,46.9842161 93.253846,46.4787292 93.1672097,45.9784536 L91.9797066,39.0957558 L97.0124269,34.2219772 C97.3778627,33.8676153 97.510097,33.3360725 97.3537608,32.8527333 C97.1967732,32.3680914 96.778574,32.0150322 96.2750414,31.9433782 Z M89.6170767,37.6691887 C89.300496,37.9766499 89.1558852,38.4196021 89.2307962,38.8547377 L90.0795711,43.7728115 L85.6239915,41.4447061 C85.2370596,41.2440748 84.775868,41.2440748 84.3889362,41.4447061 L79.9333567,43.7728115 L80.7821316,38.8547377 C80.8570426,38.420905 80.7124317,37.9766499 80.395851,37.6704916 L76.8085885,34.1946184 L81.7742146,33.4767751 C82.2080473,33.4142406 82.583254,33.143258 82.7780228,32.7498121 L85.006464,28.2629654 L87.2349052,32.7498121 C87.429674,33.143258 87.8048807,33.4142406 88.2387134,33.4767751 L93.2043395,34.1946184 L89.6170767,37.6691887 Z" id="Shape" fill="#FACA55"></path>
            </g>
        </g>
    </g>
</svg>