<?xml version="1.0" encoding="UTF-8"?>
<svg width="14px" height="16px" viewBox="0 0 14 16" version="1.1" xmlns="http://www.w3.org/2000/svg" xmlns:xlink="http://www.w3.org/1999/xlink">
    <!-- Generator: sketchtool 61 (101010) - https://sketch.com -->
    <title>987CD1A4-CCE5-4431-B080-C7ABDB0D28AC@1.00x</title>
    <desc>Created with sketchtool.</desc>
    <g id="screens" stroke="none" stroke-width="1" fill="none" fill-rule="evenodd">
        <g id="start" transform="translate(-346.000000, -568.000000)" fill="#FACA55">
            <g id="borders" transform="translate(16.000000, 16.000000)">
                <path d="M336.781764,552 C337.454472,552 338.004358,552.525861 338.042778,553.188938 L338.044922,553.263158 L338.044,557.573 L341.575745,555.101188 C342.147204,554.701048 342.934841,554.839929 343.334981,555.411389 C343.72083,555.962438 343.605472,556.7145 343.084347,557.126297 L343.02478,557.170624 L338.983,560 L343.02478,562.829376 C343.596239,563.229516 343.735121,564.017152 343.334981,564.588611 C342.949131,565.139661 342.202969,565.28848 341.637772,564.939627 L341.575745,564.898812 L338.044,562.426 L338.044922,566.736842 C338.044922,567.434465 337.479387,568 336.781764,568 C336.109056,568 335.55917,567.474139 335.520751,566.811062 L335.518606,566.736842 L335.518,562.426 L331.987784,564.898812 C331.416325,565.298952 330.628688,565.160071 330.228548,564.588611 C329.842699,564.037562 329.958057,563.2855 330.479181,562.873703 L330.538749,562.829376 L334.579,559.999 L330.538749,557.170624 C329.967289,556.770484 329.828408,555.982848 330.228548,555.411389 C330.614397,554.860339 331.360559,554.71152 331.925756,555.060373 L331.987784,555.101188 L335.518,557.573 L335.518606,553.263158 C335.518606,552.565535 336.084141,552 336.781764,552 Z" id="Combined-Shape"></path>
            </g>
        </g>
    </g>
</svg>